#N canvas 16 348 386 143 12;
#X obj 18 69 unpack f f f f f f f f f, f 44;
#X floatatom 18 92 5 0 0 0 - - -;
#X floatatom 94 92 5 0 0 0 - - -;
#X floatatom 56 92 5 0 0 0 - - -;
#X floatatom 132 92 5 0 0 0 - - -;
#X floatatom 208 93 5 0 0 0 - - -;
#X floatatom 170 93 5 0 0 0 - - -;
#X floatatom 246 93 5 0 0 0 - - -;
#X floatatom 323 92 5 0 0 0 - - -;
#X floatatom 284 93 5 0 0 0 - - -;
#X msg 18 20 10 3 24 5 6 1 23 44 5;
#X msg 224 20 1000 2 3 5 4;
#X msg 176 20 46 23;
#X obj 17 46 bubbleC;
#X connect 0 0 1 0;
#X connect 0 1 3 0;
#X connect 0 2 2 0;
#X connect 0 3 4 0;
#X connect 0 4 6 0;
#X connect 0 5 5 0;
#X connect 0 6 7 0;
#X connect 0 7 9 0;
#X connect 0 8 8 0;
#X connect 10 0 13 0;
#X connect 11 0 13 0;
#X connect 12 0 13 0;
#X connect 13 0 0 0;
