#N canvas 0 23 452 359 12;
#X obj 77 69 bubbleC;
#X obj 78 25 bng 15 250 50 0 empty empty empty 17 7 0 10 -262144 -1
-1;
#X floatatom 113 22 5 0 0 0 - - -;
#X floatatom 77 123 5 0 0 0 - - -;
#X floatatom 107 145 5 0 0 0 - - -;
#X floatatom 140 165 5 0 0 0 - - -;
#X floatatom 172 185 5 0 0 0 - - -;
#X obj 22 123 print;
#X obj 13 100 bng 15 250 50 0 empty empty empty 17 7 0 10 -262144 -1
-1;
#X obj 77 92 unpack f f f f f f f f f f;
#X floatatom 185 207 5 0 0 0 - - -;
#X floatatom 215 229 5 0 0 0 - - -;
#X floatatom 248 249 5 0 0 0 - - -;
#X floatatom 280 269 5 0 0 0 - - -;
#X floatatom 305 293 5 0 0 0 - - -;
#X floatatom 337 313 5 0 0 0 - - -;
#X msg 175 36 2 4 1 5 3 6 7 8 10 9;
#X connect 0 0 7 0;
#X connect 0 0 8 0;
#X connect 0 0 9 0;
#X connect 1 0 0 0;
#X connect 2 0 0 0;
#X connect 9 0 3 0;
#X connect 9 1 4 0;
#X connect 9 2 5 0;
#X connect 9 3 6 0;
#X connect 9 4 10 0;
#X connect 9 5 11 0;
#X connect 9 6 12 0;
#X connect 9 7 13 0;
#X connect 9 8 14 0;
#X connect 9 9 15 0;
#X connect 16 0 0 0;
