#N canvas 0 23 579 300 12;
#X obj 22 47 bubble;
#X obj 22 70 unpack f f f f f f f f f, f 44;
#X floatatom 22 93 5 0 0 0 - - -;
#X floatatom 98 93 5 0 0 0 - - -;
#X floatatom 60 93 5 0 0 0 - - -;
#X floatatom 136 93 5 0 0 0 - - -;
#X floatatom 212 94 5 0 0 0 - - -;
#X floatatom 174 94 5 0 0 0 - - -;
#X floatatom 250 94 5 0 0 0 - - -;
#X floatatom 327 93 5 0 0 0 - - -;
#X floatatom 288 94 5 0 0 0 - - -;
#X msg 22 21 10 3 24 5 6 1 23 44 5;
#X obj 423 45 bng 40 250 50 0 empty empty empty 17 7 0 10 -262130 -1
-1;
#X obj 423 90 array get my-arr;
#X text 465 56 print the array;
#X obj 423 113 print;
#X msg 133 46 1000 2 3 5 4;
#X msg 192 16 46 23;
#X connect 0 0 1 0;
#X connect 1 0 2 0;
#X connect 1 1 4 0;
#X connect 1 2 3 0;
#X connect 1 3 5 0;
#X connect 1 4 7 0;
#X connect 1 5 6 0;
#X connect 1 6 8 0;
#X connect 1 7 10 0;
#X connect 1 8 9 0;
#X connect 11 0 0 0;
#X connect 12 0 13 0;
#X connect 13 0 15 0;
#X connect 16 0 0 0;
#X connect 17 0 0 0;
