#N canvas 387 23 615 809 12;
#X obj 198 83 list length;
#X floatatom 198 106 5 0 0 0 - - -;
#X msg 249 149 resize \$1;
#X obj 198 150 s size;
#X obj 153 424 until;
#X obj 153 470 until;
#X obj 214 493 + 1;
#X obj 153 515 mod 9;
#X obj 153 376 t b b;
#X obj 153 245 bng 80 250 50 0 empty empty empty 17 7 0 10 -204786
-1 -1;
#X obj 195 394 s reset;
#X msg 195 373 0;
#X obj 200 468 r reset;
#X obj 153 542 t f f, f 28;
#X obj 152 493 f;
#X obj 346 565 + 1;
#X floatatom 346 588 5 0 0 0 - - -;
#X obj 346 642 array get my-arr;
#X floatatom 346 664 5 0 0 0 - - -;
#X obj 153 618 array get my-arr;
#X text 137 566 j;
#X floatatom 153 567 5 0 0 0 - - -;
#X floatatom 153 641 5 0 0 0 - - -;
#X text 197 633 arr[j];
#X obj 153 663 t f f;
#X obj 154 693 >;
#X obj 154 762 swap;
#X floatatom 154 798 5 0 0 0 - - -;
#X floatatom 269 797 5 0 0 0 - - -;
#X obj 154 738 f;
#X obj 154 715 sel 1;
#X obj 269 820 pack f f;
#X obj 346 610 t f f;
#X obj 269 843 unpack f f;
#X floatatom 269 866 5 0 0 0 - - -;
#X floatatom 336 868 5 0 0 0 - - -;
#X obj 154 821 pack f f;
#X obj 154 844 unpack f f;
#X floatatom 154 867 5 0 0 0 - - -;
#X floatatom 221 867 5 0 0 0 - - -;
#X obj 153 589 t f f;
#X obj 153 899 array set my-arr;
#X obj 272 899 array set my-arr;
#X obj 153 401 f;
#X obj 195 338 r size;
#X obj 195 424 - 1;
#X obj 153 449 f;
#X floatatom 262 364 5 0 0 0 - - -;
#X text 33 229 Bubble Sort array's elements;
#X obj 175 56 array set my-arr;
#X obj 309 249 bng 40 250 50 0 empty empty empty 17 7 0 10 -262130
-1 -1;
#X obj 309 294 array get my-arr;
#X text 351 260 print the array;
#X obj 249 175 array define -pix 80 40 -yrange 0 100 my-arr 10;
#X obj 410 561 ==;
#X floatatom 462 467 5 0 0 0 - - -;
#X obj 410 514 pack f f;
#X obj 410 537 unpack f f;
#X obj 410 585 sel 1;
#X obj 309 227 r done;
#X obj 462 444 expr $f1 * ($f1 - 1);
#X obj 410 607 s done;
#X obj 309 317 outlet;
#X obj 152 6 inlet;
#X obj 198 128 t f f;
#X obj 152 28 t b l l;
#X connect 0 0 1 0;
#X connect 1 0 64 0;
#X connect 2 0 53 0;
#X connect 4 0 46 0;
#X connect 5 0 14 0;
#X connect 6 0 14 1;
#X connect 6 0 56 0;
#X connect 7 0 13 0;
#X connect 8 0 43 0;
#X connect 8 1 11 0;
#X connect 9 0 8 0;
#X connect 11 0 10 0;
#X connect 12 0 14 1;
#X connect 13 0 21 0;
#X connect 13 1 15 0;
#X connect 14 0 6 0;
#X connect 14 0 7 0;
#X connect 15 0 16 0;
#X connect 16 0 32 0;
#X connect 17 0 18 0;
#X connect 18 0 25 1;
#X connect 18 0 26 1;
#X connect 19 0 22 0;
#X connect 21 0 40 0;
#X connect 22 0 24 0;
#X connect 24 0 25 0;
#X connect 24 1 29 1;
#X connect 25 0 30 0;
#X connect 26 0 27 0;
#X connect 26 1 28 0;
#X connect 27 0 36 0;
#X connect 28 0 31 0;
#X connect 29 0 26 0;
#X connect 30 0 29 0;
#X connect 31 0 33 0;
#X connect 32 0 31 1;
#X connect 32 1 17 0;
#X connect 33 0 34 0;
#X connect 33 1 35 0;
#X connect 34 0 42 0;
#X connect 35 0 42 1;
#X connect 36 0 37 0;
#X connect 37 0 38 0;
#X connect 37 1 39 0;
#X connect 38 0 41 0;
#X connect 39 0 41 1;
#X connect 40 0 19 0;
#X connect 40 1 36 1;
#X connect 43 0 4 0;
#X connect 44 0 45 0;
#X connect 44 0 43 1;
#X connect 44 0 47 0;
#X connect 44 0 60 0;
#X connect 45 0 46 1;
#X connect 45 0 7 1;
#X connect 46 0 5 0;
#X connect 50 0 51 0;
#X connect 51 0 62 0;
#X connect 54 0 58 0;
#X connect 55 0 56 1;
#X connect 56 0 57 0;
#X connect 57 0 54 0;
#X connect 57 1 54 1;
#X connect 58 0 61 0;
#X connect 59 0 50 0;
#X connect 60 0 55 0;
#X connect 63 0 65 0;
#X connect 64 0 3 0;
#X connect 64 1 2 0;
#X connect 65 0 9 0;
#X connect 65 1 49 0;
#X connect 65 2 0 0;
