#N canvas 0 24 539 809 12;
#X obj 364 86 bng 40 250 50 0 empty empty empty 17 7 0 10 -262130 -1
-1;
#X obj 364 131 array get my-arr;
#X obj 127 275 until;
#X obj 127 321 until;
#X obj 188 344 + 1;
#X obj 127 366 mod 9;
#X obj 127 227 t b b;
#X obj 127 96 bng 80 250 50 0 empty empty empty 17 7 0 10 -204786 -1
-1;
#X obj 169 245 s reset;
#X msg 169 224 0;
#X obj 174 319 r reset;
#X obj 127 393 t f f, f 28;
#X obj 126 344 f;
#X obj 320 416 + 1;
#X floatatom 320 439 5 0 0 0 - - -;
#X obj 320 493 array get my-arr;
#X floatatom 320 515 5 0 0 0 - - -;
#X text 357 517 arr[j + 1];
#X obj 127 469 array get my-arr;
#X text 111 417 j;
#X floatatom 127 418 5 0 0 0 - - -;
#X floatatom 127 492 5 0 0 0 - - -;
#X text 171 484 arr[j];
#X obj 127 514 t f f;
#X obj 128 544 >;
#X obj 128 613 swap;
#X floatatom 128 649 5 0 0 0 - - -;
#X floatatom 243 648 5 0 0 0 - - -;
#X obj 128 589 f;
#X obj 128 566 sel 1;
#X obj 243 671 pack f f;
#X obj 320 461 t f f;
#X obj 243 694 unpack f f;
#X floatatom 243 717 5 0 0 0 - - -;
#X floatatom 310 719 5 0 0 0 - - -;
#X obj 128 672 pack f f;
#X obj 128 695 unpack f f;
#X floatatom 128 718 5 0 0 0 - - -;
#X floatatom 195 718 5 0 0 0 - - -;
#X obj 127 440 t f f;
#X obj 127 750 array set my-arr;
#X obj 246 750 array set my-arr;
#X obj 127 252 f;
#X obj 169 189 r size;
#X obj 169 275 - 1;
#X obj 127 300 f;
#N canvas 380 23 450 354 RandomArray 0;
#X obj 49 34 inlet;
#X obj 69 315 array set my-arr;
#X obj 69 266 random 100;
#X obj 69 227 until;
#X obj 151 245 + 1;
#X obj 122 245 f;
#X obj 109 130 array define -pix 80 40 -yrange 0 100 my-arr 10;
#X obj 69 203 f;
#X obj 69 180 t b b;
#X obj 69 162 bng 15 250 50 0 empty empty empty 17 7 0 10 -262144 -1
-1;
#X obj 69 289 + 1;
#X msg 109 104 resize \$1;
#X floatatom 49 58 5 0 0 0 - - -;
#X obj -3 98 s size;
#X obj 49 80 t f b f f;
#X msg 139 198 0;
#X connect 0 0 12 0;
#X connect 2 0 10 0;
#X connect 3 0 5 0;
#X connect 3 0 2 0;
#X connect 4 0 5 1;
#X connect 5 0 4 0;
#X connect 5 0 1 1;
#X connect 7 0 3 0;
#X connect 8 0 7 0;
#X connect 8 1 15 0;
#X connect 9 0 8 0;
#X connect 10 0 1 0;
#X connect 11 0 6 0;
#X connect 12 0 14 0;
#X connect 14 0 13 0;
#X connect 14 1 9 0;
#X connect 14 2 7 1;
#X connect 14 3 11 0;
#X connect 15 0 5 1;
#X restore 372 34 pd RandomArray;
#X floatatom 372 10 10 0 0 0 - - -;
#X floatatom 236 215 5 0 0 0 - - -;
#X obj 364 153 print MyArray;
#X text 172 9 Define the size of the array;
#X text 406 97 print the array;
#X text 7 80 Bubble Sort array's elements;
#X connect 0 0 1 0;
#X connect 1 0 49 0;
#X connect 2 0 45 0;
#X connect 3 0 12 0;
#X connect 4 0 12 1;
#X connect 5 0 11 0;
#X connect 6 0 42 0;
#X connect 6 1 9 0;
#X connect 7 0 6 0;
#X connect 9 0 8 0;
#X connect 10 0 12 1;
#X connect 11 0 20 0;
#X connect 11 1 13 0;
#X connect 12 0 4 0;
#X connect 12 0 5 0;
#X connect 13 0 14 0;
#X connect 14 0 31 0;
#X connect 15 0 16 0;
#X connect 16 0 24 1;
#X connect 16 0 25 1;
#X connect 18 0 21 0;
#X connect 20 0 39 0;
#X connect 21 0 23 0;
#X connect 23 0 24 0;
#X connect 23 1 28 1;
#X connect 24 0 29 0;
#X connect 25 0 26 0;
#X connect 25 1 27 0;
#X connect 26 0 35 0;
#X connect 27 0 30 0;
#X connect 28 0 25 0;
#X connect 29 0 28 0;
#X connect 30 0 32 0;
#X connect 31 0 30 1;
#X connect 31 1 15 0;
#X connect 32 0 33 0;
#X connect 32 1 34 0;
#X connect 33 0 41 0;
#X connect 34 0 41 1;
#X connect 35 0 36 0;
#X connect 36 0 37 0;
#X connect 36 1 38 0;
#X connect 37 0 40 0;
#X connect 38 0 40 1;
#X connect 39 0 18 0;
#X connect 39 1 35 1;
#X connect 42 0 2 0;
#X connect 43 0 44 0;
#X connect 43 0 42 1;
#X connect 43 0 48 0;
#X connect 44 0 45 1;
#X connect 44 0 5 1;
#X connect 45 0 3 0;
#X connect 47 0 46 0;
